<svg width="48" height="42" viewBox="0 0 48 42" fill="none" xmlns="http://www.w3.org/2000/svg">
<path d="M46.653 0.375H0.715454C0.457642 0.375 0.246704 0.585938 0.246704 0.84375V4.59375C0.246704 4.85156 0.457642 5.0625 0.715454 5.0625H46.653C46.9108 5.0625 47.1217 4.85156 47.1217 4.59375V0.84375C47.1217 0.585938 46.9108 0.375 46.653 0.375ZM46.653 36.9375H0.715454C0.457642 36.9375 0.246704 37.1484 0.246704 37.4062V41.1562C0.246704 41.4141 0.457642 41.625 0.715454 41.625H46.653C46.9108 41.625 47.1217 41.4141 47.1217 41.1562V37.4062C47.1217 37.1484 46.9108 36.9375 46.653 36.9375ZM46.653 18.6562H0.715454C0.457642 18.6562 0.246704 18.8672 0.246704 19.125V22.875C0.246704 23.1328 0.457642 23.3438 0.715454 23.3438H46.653C46.9108 23.3438 47.1217 23.1328 47.1217 22.875V19.125C47.1217 18.8672 46.9108 18.6562 46.653 18.6562Z" fill="black"/>
</svg>
